<?xml version="1.0" encoding="utf-8"?>
<!-- Generator: Adobe Illustrator 16.0.0, SVG Export Plug-In . SVG Version: 6.00 Build 0)  -->
<!DOCTYPE svg PUBLIC "-//W3C//DTD SVG 1.1//EN" "http://www.w3.org/Graphics/SVG/1.1/DTD/svg11.dtd">
<svg version="1.1" id="Layer_1" xmlns="http://www.w3.org/2000/svg" xmlns:xlink="http://www.w3.org/1999/xlink" x="0px" y="0px"
	 width="58.57px" height="50px" viewBox="0 0 58.57 50" enable-background="new 0 0 58.57 50" xml:space="preserve">
<g id="Logo">
	<g>
		<path d="M53.697,22.361L36.209,4.874c-1.654-1.655-4.339-1.655-5.994,0l-9.674,9.674l-9.674-9.674
			C9.655,3.662,7.832,3.299,6.249,3.955C4.665,4.611,3.632,6.156,3.632,7.87v27.632c1.225-0.786,2.68-1.243,4.238-1.243
			c1.561,0,3.014,0.457,4.238,1.243v-17.4l5.436,5.436c1.431,1.43,3.67,1.65,5.353,0.527c0.252-0.169,0.48-0.36,0.686-0.571
			c0.54-0.54,6.07-6.07,9.63-9.63l11.494,11.494L30.932,39.132c-1.655,1.655-1.655,4.339,0,5.994c0.827,0.827,1.912,1.24,2.996,1.24
			c1.086,0,2.17-0.413,2.997-1.24l16.771-16.771C55.352,26.701,55.352,24.016,53.697,22.361z"/>
		<path fill="#E63B35" d="M7.87,37.891c-2.34,0-4.238,1.897-4.238,4.237c0,2.049,1.453,3.758,3.385,4.152
			c0.138,0.028,0.277,0.05,0.421,0.063c0.143,0.014,0.287,0.021,0.433,0.021c0.146,0,0.292-0.008,0.434-0.021
			c0.143-0.015,0.282-0.035,0.421-0.063c1.931-0.396,3.384-2.104,3.384-4.152C12.108,39.789,10.211,37.891,7.87,37.891z"/>
	</g>
	<rect x="0" fill="none" width="58.57" height="50"/>
</g>
</svg>
